inDegrees=yes
name=ik_XSDot_20240315_154836_orientations
DataType=double
version=3
OpenSimVersion=4.5-2024-01-10-34fd6af
endheader
time	pelvis_tilt	pelvis_list	pelvis_rotation	pelvis_tx	pelvis_ty	pelvis_tz	hip_flexion_r	hip_adduction_r	hip_rotation_r	knee_angle_r	ankle_angle_r	subtalar_angle_r	mtp_angle_r	hip_flexion_l	hip_adduction_l	hip_rotation_l	knee_angle_l	ankle_angle_l	subtalar_angle_l	mtp_angle_l	lumbar_extension	lumbar_bending	lumbar_rotation
4.499999999999948	58.26424305396117	-0.357104401513658	36.46726510862062	0	0.95	0	-162.5900933438614	-6.945062085908518	2.005910564379571	-22.26161677417182	0	0	0	-9.55657122924149	-6.663767073853382	-27.79814330394526	-146.537881400752	0	0	0	0	0	0
4.509999999999948	59.01117302988582	-0.5388501412438553	36.98639793893167	0	0.95	0	-162.5867032528682	-7.727176700822571	2.663578755159739	-24.69402221350253	0	0	0	-10.37640199156098	-6.605263800673489	-28.46718257015179	-145.3386098471314	0	0	0	0	0	0
4.519999999999948	58.66171708208314	-1.267578417390618	36.39709911790165	0	0.95	0	-161.9494850341821	-8.736613663850827	2.339128905609204	-23.59373587510043	0	0	0	-10.15247740894511	-6.217050142034136	-30.48943330226166	-143.9479948879224	0	0	0	0	0	0
4.529999999999948	55.692450921032	-2.601477169928322	35.57291203277444	0	0.95	0	-159.4005098154537	-9.227744058958569	0.9401893842243498	-23.48551551945105	0	0	0	-7.430782718337929	-4.928564306869417	-32.58146724199456	-142.7052240775842	0	0	0	0	0	0
4.539999999999948	55.44614115488181	-2.584678469780075	36.62589388099277	0	0.95	0	-159.6562065454845	-9.7137426234193	1.479240652615555	-23.08036797136938	0	0	0	-7.554369447075642	-4.507439125623572	-33.02292981508138	-141.5108749951359	0	0	0	0	0	0
4.549999999999947	55.21548149323791	-2.231612041361395	37.29298060810267	0	0.95	0	-160.2008442764185	-10.07933722332303	2.112326396432555	-21.16725862087276	0	0	0	-7.850114437004883	-3.844737488924413	-33.69908125457228	-140.4535170536582	0	0	0	0	0	0
4.559999999999947	53.87784525145705	-1.927734941601035	37.77323937855915	0	0.95	0	-160.1501765777074	-9.76887472384387	2.655908726214362	-18.65905902674488	0	0	0	-7.086658498585102	-2.507276034114871	-34.31031624087589	-139.4979928812801	0	0	0	0	0	0
4.569999999999947	51.50044853032856	-2.054960585054803	38.60900716113009	0	0.95	0	-159.2031018739133	-9.079742447498322	3.477059400951014	-16.06350480712749	0	0	0	-5.180462768857442	-0.8126499468641499	-34.42404423493548	-138.6756625797013	0	0	0	0	0	0
4.579999999999947	47.84867562818498	-2.952750590000094	39.46749644882144	0	0.95	0	-156.8038794608621	-8.204895950587467	4.191960862525186	-13.76315387511428	0	0	0	-1.731256919612754	1.182695161914721	-34.29354354773461	-137.5524028204731	0	0	0	0	0	0
4.589999999999947	45.16502125911472	-3.962353569889005	40.96223940269994	0	0.95	0	-154.9236022683351	-7.487266900613757	5.779821122246797	-12.07763730355655	0	0	0	1.125101235172698	2.759792814775502	-33.63931410894751	-136.6215660186352	0	0	0	0	0	0
4.599999999999946	43.25981470577399	-5.08620255117162	42.48072428815849	0	0.95	0	-153.5893502869907	-6.988006577383145	7.595346120716577	-11.18137061207981	0	0	0	3.573896673557686	4.035503428030635	-33.24297559729315	-136.1526531366007	0	0	0	0	0	0
4.609999999999946	42.3316697684212	-5.344947690699904	43.66149957299223	0	0.95	0	-154.0925912876972	-6.507697936518826	9.003231948850985	-10.20785828535685	0	0	0	4.705021251713609	5.298980346364338	-33.30365967873513	-135.7922057219087	0	0	0	0	0	0
4.619999999999946	42.49158547086442	-4.350471933860417	44.74312525043705	0	0.95	0	-156.4433570860271	-5.89669280851581	10.24362263324469	-9.054932177357507	0	0	0	3.973380563333234	6.567442483305459	-33.30658090976134	-135.7945066716071	0	0	0	0	0	0
4.629999999999946	43.051295935445	-3.123659198356898	45.75016282007636	0	0.95	0	-159.398076836042	-5.43776745364806	11.51257539487625	-7.218784842804963	0	0	0	2.682027123300399	7.323881884416019	-33.16278187756131	-136.3074582318719	0	0	0	0	0	0
4.639999999999946	43.61868516189138	-2.246716325554786	46.61797471720779	0	0.95	0	-162.0988035619145	-5.293560530364843	12.86086462283783	-4.991702984053012	0	0	0	1.537182064163374	7.381835121905764	-32.83830608868632	-136.6027474915341	0	0	0	0	0	0
4.649999999999945	44.04458282667365	-1.756117510610424	47.6386735313317	0	0.95	0	-164.1294323690393	-5.316525501848704	14.54195757016529	-2.919796652461898	0	0	0	0.7695860922227348	6.94038531743344	-32.11616401101941	-137.3591956930705	0	0	0	0	0	0
4.659999999999945	44.17756860559016	-1.698173642536691	48.78363493021026	0	0.95	0	-165.5015900963145	-5.394481863148053	16.37423299921848	-1.204315977186256	0	0	0	0.5901887657508016	6.357839068393256	-31.01344785281304	-139.1534298921487	0	0	0	0	0	0
4.669999999999945	43.94296596257796	-1.933281410680283	50.126274437093	0	0.95	0	-166.3427548845955	-5.387269140357966	18.31885807649193	0.1444776603834732	0	0	0	0.9405638891755036	5.928433742539158	-29.26965097443402	-141.127079661038	0	0	0	0	0	0
4.679999999999945	43.49690924744949	-2.222420693042241	51.76363422939951	0	0.95	0	-166.8539248082331	-5.221224524489792	20.51247512546346	1.168934542435796	0	0	0	1.423656718297733	5.658770267391456	-26.83479421781668	-142.7192654614735	0	0	0	0	0	0
4.689999999999944	42.97473083530532	-2.308601330788617	53.4117759059954	0	0.95	0	-167.404046500178	-4.912360527347514	22.6678414297661	2.011015437124552	0	0	0	1.770542979104386	5.543231970516243	-24.18322141373351	-144.4298589279779	0	0	0	0	0	0
4.699999999999944	42.41686366328856	-2.295757350073313	55.01543276708546	0	0.95	0	-168.1245602684079	-4.578869049830753	24.75966233802894	2.962704344965989	0	0	0	2.005371114966636	5.504655443838097	-21.41645706951579	-146.6047500113007	0	0	0	0	0	0
4.709999999999944	41.80692581241488	-2.349964856978588	56.61794702090126	0	0.95	0	-168.8602610827589	-4.291819042608179	26.79313122994244	4.073503462417721	0	0	0	2.255660438525334	5.497739036888208	-18.46010095183576	-148.9804369300253	0	0	0	0	0	0
4.719999999999944	41.14935465783081	-2.53821894542028	58.27566101505845	0	0.95	0	-169.5518209902654	-4.084554285687396	28.78770313029494	5.421059193962082	0	0	0	2.538708447930066	5.457133897719932	-15.17742370773766	-150.9089738707463	0	0	0	0	0	0
4.729999999999944	40.51532586725795	-2.852812958808553	59.96385466254205	0	0.95	0	-170.2486117113747	-4.022057015995281	30.63435538831503	6.889769256968163	0	0	0	2.826707383502011	5.325211995363357	-11.56226082237465	-152.1177978658987	0	0	0	0	0	0
4.739999999999943	39.87944312227008	-3.311653172208973	61.58762192850725	0	0.95	0	-170.7828902237567	-4.005131546997016	32.25421003293211	8.233519256464303	0	0	0	3.215460890592558	5.040385508481063	-7.800156398676649	-152.7627488763277	0	0	0	0	0	0
4.749999999999943	39.2146727508068	-3.951685030648009	63.20698590111186	0	0.95	0	-170.9400977228908	-3.942427622750825	33.76079189909609	9.217457003467777	0	0	0	3.755750562639284	4.722315392453476	-3.913093375585446	-152.7903621900256	0	0	0	0	0	0
4.759999999999943	38.64451448745375	-4.643774794524114	64.88270499299475	0	0.95	0	-170.6027614346872	-3.683091739168369	35.28575655295818	9.485622992314497	0	0	0	4.222857844736572	4.305032420112251	0.08419632634153493	-152.1241291828431	0	0	0	0	0	0
4.769999999999943	38.15979214690539	-5.374435333327373	66.68780293154477	0	0.95	0	-169.693689517285	-3.063475266007603	36.8864622586464	8.865892998194219	0	0	0	4.640988788263134	3.712791838160867	4.331218481145	-150.2514582702468	0	0	0	0	0	0
4.779999999999943	37.56227757765483	-6.124780900670538	68.57334174091383	0	0.95	0	-168.4023955189027	-1.979268570126298	38.49601714234841	7.694167446436509	0	0	0	5.114583031259981	3.245420746882182	8.808269775288613	-147.594747706109	0	0	0	0	0	0
4.789999999999942	36.86773291364191	-6.865787860651119	70.40160240367901	0	0.95	0	-167.0364836259481	-0.5342418172268546	39.92709520150934	6.302243388851671	0	0	0	5.660533328839117	2.916341732956028	13.31649974320681	-145.1406693046725	0	0	0	0	0	0
4.799999999999942	36.20215627972471	-7.572299168583576	72.13756305957834	0	0.95	0	-165.8716121413831	0.9357289292619401	41.12492093424716	5.070255802791308	0	0	0	6.188472723435122	2.596831016528649	17.65412078209335	-143.0555653140948	0	0	0	0	0	0
4.809999999999942	35.68837257606798	-8.171016278745524	73.66519905981986	0	0.95	0	-165.1491381542805	2.197745847814588	42.01957524782108	4.266065853933587	0	0	0	6.638727330108467	2.132731542408913	21.61706768301793	-141.4172256376427	0	0	0	0	0	0
